<?xml version="1.0" encoding="utf-8"?>
<!-- Generator: Adobe Illustrator 22.1.0, SVG Export Plug-In . SVG Version: 6.00 Build 0)  -->
<svg version="1.1" id="Layer_1" xmlns="http://www.w3.org/2000/svg" xmlns:xlink="http://www.w3.org/1999/xlink" x="0px" y="0px"
	 viewBox="0 0 24 24" style="enable-background:new 0 0 24 24;" xml:space="preserve">
<style type="text/css">
	.st0{fill:#FFFFFF;stroke:#FFFFFF;stroke-miterlimit:10;}
</style>
<title></title>
<path class="st0" d="M11,7.4V13h4.7v-2H13V7.4H11z M18.4,5.6c-3.5-3.5-9.2-3.5-12.7,0L5,6.3l-2-2V10h5.7L6.4,7.7L7.1,7
	c2.7-2.7,7.2-2.7,9.9,0.1s2.7,7.2-0.1,9.9S9.7,19.7,7,16.9c-1-1.1-1.7-2.4-1.9-3.9h-2c0.5,4.5,4.4,8,8.9,8c5,0,9-4,9-9
	C21,9.6,20,7.3,18.4,5.6z"/>
</svg>
